<svg width="81" height="40" viewBox="0 0 81 40" fill="none" xmlns="http://www.w3.org/2000/svg">
<rect width="81" height="40" rx="12" fill="#FFE7E7"/>
<path d="M25.5469 23.7969V25.25H12.6406V23.7969H18.1875V21.0156H13.75V19.6406H15.7344V15.4219H13.7031V14.0156H24.4219V15.4219H22.3594V19.6406H24.375V21.0156H19.9062V23.7969H25.5469ZM17.4688 19.6406H20.6406V15.4219H17.4688V19.6406ZM38.2656 12.7656V26.8906H36.5156V12.7656H38.2656ZM34.0469 14.2656C34.0469 18.4688 32.4219 22.0469 27.4688 24.3906L26.5625 23C30.2578 21.2422 31.9766 18.8516 32.2812 15.6406H27.2812V14.2656H34.0469Z" fill="#F24744"/>
<g clip-path="url(#clip0_4711_56482)">
<path fill-rule="evenodd" clip-rule="evenodd" d="M54.4104 11.5156C54.6008 11.9507 54.4024 12.4579 53.9672 12.6483L46.8374 15.7676V28.1893L52.7809 25.4156C53.2113 25.2147 53.7231 25.4008 53.924 25.8313C54.1249 26.2617 53.9388 26.7735 53.5083 26.9744L46.341 30.3191C46.0746 30.4435 45.7632 30.4231 45.5153 30.2652C45.2673 30.1073 45.1172 29.8337 45.1172 29.5398V15.2051C45.1172 14.8634 45.3195 14.5541 45.6325 14.4171L53.2777 11.0723C53.7129 10.8819 54.22 11.0804 54.4104 11.5156Z" fill="#F24744"/>
<circle cx="48.8424" cy="21.4166" r="0.955646" fill="#F24744"/>
<path fill-rule="evenodd" clip-rule="evenodd" d="M53.6218 11C53.1468 11 52.7617 11.3851 52.7617 11.8601V26.1948C52.7617 26.6698 53.1468 27.0549 53.6218 27.0549H62.2226C62.6976 27.0549 63.0827 26.6698 63.0827 26.1948V21H61.3625V25.3347H54.4819V12.7202H61.3625V17H63.0827V11.8601C63.0827 11.3851 62.6976 11 62.2226 11H53.6218Z" fill="#F24744"/>
<path d="M61 18.8226H68.1673M68.1673 18.8226L64.3448 15M68.1673 18.8226L64.3448 22.6452" stroke="#F24744" stroke-width="1.72016" stroke-linecap="round" stroke-linejoin="round"/>
</g>
<defs>
<clipPath id="clip0_4711_56482">
<rect width="24" height="24" fill="white" transform="translate(45 8)"/>
</clipPath>
</defs>
</svg>
