<svg width="24" height="20" viewBox="0 0 24 20" fill="none" xmlns="http://www.w3.org/2000/svg">
<path fill-rule="evenodd" clip-rule="evenodd" d="M9.29322 0.515562C9.48361 0.950746 9.28517 1.45788 8.84999 1.64827L1.72016 4.76757V17.1893L7.66371 14.4156C8.09416 14.2147 8.60595 14.4008 8.80682 14.8313C9.0077 15.2617 8.82159 15.7735 8.39114 15.9744L1.2238 19.3191C0.957422 19.4435 0.646008 19.4231 0.398067 19.2652C0.150126 19.1073 0 18.8337 0 18.5398V4.20506C0 3.86335 0.202286 3.55405 0.515345 3.41709L8.16051 0.0723289C8.5957 -0.118064 9.10283 0.0803782 9.29322 0.515562Z" fill="#F24744"/>
<circle cx="3.72518" cy="10.4166" r="0.955646" fill="#F24744"/>
<path fill-rule="evenodd" clip-rule="evenodd" d="M8.50461 0C8.0296 0 7.64453 0.385072 7.64453 0.860082V15.1948C7.64453 15.6698 8.0296 16.0549 8.50461 16.0549H17.1054C17.5804 16.0549 17.9655 15.6698 17.9655 15.1948V10H16.2453V14.3347H9.36469V1.72016H16.2453V6H17.9655V0.860082C17.9655 0.385072 17.5804 0 17.1054 0H8.50461Z" fill="#F24744"/>
<path d="M15.8828 7.82259H23.0502M23.0502 7.82259L19.2276 4M23.0502 7.82259L19.2276 11.6452" stroke="#F24744" stroke-width="1.72016" stroke-linecap="round" stroke-linejoin="round"/>
</svg>
